<svg xmlns="http://www.w3.org/2000/svg" viewBox="0 0 1516.53 600.00">
  <style>
    .key-bg { fill: #f5f5f5; stroke: #d4d4d4; stroke-width: 1; }
    .key-index { fill: #171717; font-family: ui-monospace, SFMono-Regular, "SF Mono", Menlo, Consolas, "Liberation Mono", monospace; font-weight: 700; text-anchor: middle; dominant-baseline: central; }
    .key-part { font-family: system-ui, -apple-system, BlinkMacSystemFont, "Segoe UI", Roboto, sans-serif; text-anchor: middle; dominant-baseline: central; }
    @media (prefers-color-scheme: dark) {
      .key-bg { fill: #2a2a2a; stroke: #404040; }
      .key-index { fill: #e5e5e5; }
    }
    .key-bg.part-0 { stroke: #f59e0b; }
    .key-part.part-0 { fill: #f59e0b; }
    .key-bg.part-1 { stroke: #14b8a6; }
    .key-part.part-1 { fill: #14b8a6; }
  </style>
  <g>
    <path class="key-bg part-0" d="M 95.45,178.65 L 153.23,173.60 Q 157.22,173.25 157.56,177.23 L 162.62,235.01 Q 162.97,239.00 158.98,239.35 L 101.20,244.40 Q 97.22,244.75 96.87,240.77 L 91.82,182.99 Q 91.47,179.00 95.45,178.65 Z" />
    <path class="key-bg part-0" d="M 201.12,57.00 L 259.12,57.00 Q 263.12,57.00 263.12,61.00 L 263.12,119.00 Q 263.12,123.00 259.12,123.00 L 201.12,123.00 Q 197.12,123.00 197.12,119.00 L 197.12,61.00 Q 197.12,57.00 201.12,57.00 Z" />
    <path class="key-bg part-0" d="M 271.12,22.00 L 329.12,22.00 Q 333.12,22.00 333.12,26.00 L 333.12,84.00 Q 333.12,88.00 329.12,88.00 L 271.12,88.00 Q 267.12,88.00 267.12,84.00 L 267.12,26.00 Q 267.12,22.00 271.12,22.00 Z" />
    <path class="key-bg part-0" d="M 355.12,71.00 L 413.12,71.00 Q 417.12,71.00 417.12,75.00 L 417.12,133.00 Q 417.12,137.00 413.12,137.00 L 355.12,137.00 Q 351.12,137.00 351.12,133.00 L 351.12,75.00 Q 351.12,71.00 355.12,71.00 Z" />
    <path class="key-bg part-0" d="M 425.12,88.50 L 483.12,88.50 Q 487.12,88.50 487.12,92.50 L 487.12,150.50 Q 487.12,154.50 483.12,154.50 L 425.12,154.50 Q 421.12,154.50 421.12,150.50 L 421.12,92.50 Q 421.12,88.50 425.12,88.50 Z" />
    <path class="key-bg part-1" d="M 1033.42,88.50 L 1091.42,88.50 Q 1095.42,88.50 1095.42,92.50 L 1095.42,150.50 Q 1095.42,154.50 1091.42,154.50 L 1033.42,154.50 Q 1029.42,154.50 1029.42,150.50 L 1029.42,92.50 Q 1029.42,88.50 1033.42,88.50 Z" />
    <path class="key-bg part-1" d="M 1103.42,71.00 L 1161.42,71.00 Q 1165.42,71.00 1165.42,75.00 L 1165.42,133.00 Q 1165.42,137.00 1161.42,137.00 L 1103.42,137.00 Q 1099.42,137.00 1099.42,133.00 L 1099.42,75.00 Q 1099.42,71.00 1103.42,71.00 Z" />
    <path class="key-bg part-1" d="M 1187.42,22.00 L 1245.42,22.00 Q 1249.42,22.00 1249.42,26.00 L 1249.42,84.00 Q 1249.42,88.00 1245.42,88.00 L 1187.42,88.00 Q 1183.42,88.00 1183.42,84.00 L 1183.42,26.00 Q 1183.42,22.00 1187.42,22.00 Z" />
    <path class="key-bg part-1" d="M 1257.42,57.00 L 1315.42,57.00 Q 1319.42,57.00 1319.42,61.00 L 1319.42,119.00 Q 1319.42,123.00 1315.42,123.00 L 1257.42,123.00 Q 1253.42,123.00 1253.42,119.00 L 1253.42,61.00 Q 1253.42,57.00 1257.42,57.00 Z" />
    <path class="key-bg part-1" d="M 1363.30,173.60 L 1421.08,178.65 Q 1425.07,179.00 1424.72,182.99 L 1419.66,240.77 Q 1419.32,244.75 1415.33,244.40 L 1357.55,239.35 Q 1353.57,239.00 1353.92,235.01 L 1358.97,177.23 Q 1359.32,173.25 1363.30,173.60 Z" />
    <path class="key-bg part-0" d="M 26.15,175.85 L 83.93,170.80 Q 87.92,170.45 88.26,174.43 L 93.32,232.21 Q 93.67,236.20 89.68,236.55 L 31.90,241.60 Q 27.92,241.95 27.57,237.97 L 22.52,180.19 Q 22.17,176.20 26.15,175.85 Z" />
    <path class="key-bg part-0" d="M 201.12,127.00 L 259.12,127.00 Q 263.12,127.00 263.12,131.00 L 263.12,189.00 Q 263.12,193.00 259.12,193.00 L 201.12,193.00 Q 197.12,193.00 197.12,189.00 L 197.12,131.00 Q 197.12,127.00 201.12,127.00 Z" />
    <path class="key-bg part-0" d="M 271.12,92.00 L 329.12,92.00 Q 333.12,92.00 333.12,96.00 L 333.12,154.00 Q 333.12,158.00 329.12,158.00 L 271.12,158.00 Q 267.12,158.00 267.12,154.00 L 267.12,96.00 Q 267.12,92.00 271.12,92.00 Z" />
    <path class="key-bg part-0" d="M 355.12,141.00 L 413.12,141.00 Q 417.12,141.00 417.12,145.00 L 417.12,203.00 Q 417.12,207.00 413.12,207.00 L 355.12,207.00 Q 351.12,207.00 351.12,203.00 L 351.12,145.00 Q 351.12,141.00 355.12,141.00 Z" />
    <path class="key-bg part-0" d="M 425.12,158.50 L 483.12,158.50 Q 487.12,158.50 487.12,162.50 L 487.12,220.50 Q 487.12,224.50 483.12,224.50 L 425.12,224.50 Q 421.12,224.50 421.12,220.50 L 421.12,162.50 Q 421.12,158.50 425.12,158.50 Z" />
    <path class="key-bg part-1" d="M 1033.42,158.50 L 1091.42,158.50 Q 1095.42,158.50 1095.42,162.50 L 1095.42,220.50 Q 1095.42,224.50 1091.42,224.50 L 1033.42,224.50 Q 1029.42,224.50 1029.42,220.50 L 1029.42,162.50 Q 1029.42,158.50 1033.42,158.50 Z" />
    <path class="key-bg part-1" d="M 1103.42,141.00 L 1161.42,141.00 Q 1165.42,141.00 1165.42,145.00 L 1165.42,203.00 Q 1165.42,207.00 1161.42,207.00 L 1103.42,207.00 Q 1099.42,207.00 1099.42,203.00 L 1099.42,145.00 Q 1099.42,141.00 1103.42,141.00 Z" />
    <path class="key-bg part-1" d="M 1187.42,92.00 L 1245.42,92.00 Q 1249.42,92.00 1249.42,96.00 L 1249.42,154.00 Q 1249.42,158.00 1245.42,158.00 L 1187.42,158.00 Q 1183.42,158.00 1183.42,154.00 L 1183.42,96.00 Q 1183.42,92.00 1187.42,92.00 Z" />
    <path class="key-bg part-1" d="M 1257.42,127.00 L 1315.42,127.00 Q 1319.42,127.00 1319.42,131.00 L 1319.42,189.00 Q 1319.42,193.00 1315.42,193.00 L 1257.42,193.00 Q 1253.42,193.00 1253.42,189.00 L 1253.42,131.00 Q 1253.42,127.00 1257.42,127.00 Z" />
    <path class="key-bg part-1" d="M 1432.60,170.80 L 1490.38,175.85 Q 1494.37,176.20 1494.02,180.19 L 1488.96,237.97 Q 1488.62,241.95 1484.63,241.60 L 1426.85,236.55 Q 1422.87,236.20 1423.22,232.21 L 1428.27,174.43 Q 1428.62,170.45 1432.60,170.80 Z" />
    <path class="key-bg part-0" d="M 33.15,262.65 L 90.93,257.60 Q 94.92,257.25 95.26,261.23 L 100.32,319.01 Q 100.67,323.00 96.68,323.35 L 38.90,328.40 Q 34.92,328.75 34.57,324.77 L 29.52,266.99 Q 29.17,263.00 33.15,262.65 Z" />
    <path class="key-bg part-0" d="M 201.12,197.00 L 259.12,197.00 Q 263.12,197.00 263.12,201.00 L 263.12,259.00 Q 263.12,263.00 259.12,263.00 L 201.12,263.00 Q 197.12,263.00 197.12,259.00 L 197.12,201.00 Q 197.12,197.00 201.12,197.00 Z" />
    <path class="key-bg part-0" d="M 271.12,162.00 L 329.12,162.00 Q 333.12,162.00 333.12,166.00 L 333.12,224.00 Q 333.12,228.00 329.12,228.00 L 271.12,228.00 Q 267.12,228.00 267.12,224.00 L 267.12,166.00 Q 267.12,162.00 271.12,162.00 Z" />
    <path class="key-bg part-0" d="M 355.12,211.00 L 413.12,211.00 Q 417.12,211.00 417.12,215.00 L 417.12,273.00 Q 417.12,277.00 413.12,277.00 L 355.12,277.00 Q 351.12,277.00 351.12,273.00 L 351.12,215.00 Q 351.12,211.00 355.12,211.00 Z" />
    <path class="key-bg part-0" d="M 425.12,228.50 L 483.12,228.50 Q 487.12,228.50 487.12,232.50 L 487.12,290.50 Q 487.12,294.50 483.12,294.50 L 425.12,294.50 Q 421.12,294.50 421.12,290.50 L 421.12,232.50 Q 421.12,228.50 425.12,228.50 Z" />
    <path class="key-bg part-1" d="M 1033.42,228.50 L 1091.42,228.50 Q 1095.42,228.50 1095.42,232.50 L 1095.42,290.50 Q 1095.42,294.50 1091.42,294.50 L 1033.42,294.50 Q 1029.42,294.50 1029.42,290.50 L 1029.42,232.50 Q 1029.42,228.50 1033.42,228.50 Z" />
    <path class="key-bg part-1" d="M 1103.42,211.00 L 1161.42,211.00 Q 1165.42,211.00 1165.42,215.00 L 1165.42,273.00 Q 1165.42,277.00 1161.42,277.00 L 1103.42,277.00 Q 1099.42,277.00 1099.42,273.00 L 1099.42,215.00 Q 1099.42,211.00 1103.42,211.00 Z" />
    <path class="key-bg part-1" d="M 1187.42,162.00 L 1245.42,162.00 Q 1249.42,162.00 1249.42,166.00 L 1249.42,224.00 Q 1249.42,228.00 1245.42,228.00 L 1187.42,228.00 Q 1183.42,228.00 1183.42,224.00 L 1183.42,166.00 Q 1183.42,162.00 1187.42,162.00 Z" />
    <path class="key-bg part-1" d="M 1257.42,197.00 L 1315.42,197.00 Q 1319.42,197.00 1319.42,201.00 L 1319.42,259.00 Q 1319.42,263.00 1315.42,263.00 L 1257.42,263.00 Q 1253.42,263.00 1253.42,259.00 L 1253.42,201.00 Q 1253.42,197.00 1257.42,197.00 Z" />
    <path class="key-bg part-1" d="M 1425.60,257.60 L 1483.38,262.65 Q 1487.37,263.00 1487.02,266.99 L 1481.96,324.77 Q 1481.62,328.75 1477.63,328.40 L 1419.85,323.35 Q 1415.87,323.00 1416.22,319.01 L 1421.27,261.23 Q 1421.62,257.25 1425.60,257.60 Z" />
    <path class="key-bg part-0" d="M 101.05,247.95 L 158.83,242.90 Q 162.82,242.55 163.16,246.53 L 168.22,304.31 Q 168.57,308.30 164.58,308.65 L 106.80,313.70 Q 102.82,314.05 102.47,310.07 L 97.42,252.29 Q 97.07,248.30 101.05,247.95 Z" />
    <path class="key-bg part-0" d="M 362.12,356.60 L 420.12,356.60 Q 424.12,356.60 424.12,360.60 L 424.12,418.60 Q 424.12,422.60 420.12,422.60 L 362.12,422.60 Q 358.12,422.60 358.12,418.60 L 358.12,360.60 Q 358.12,356.60 362.12,356.60 Z" />
    <path class="key-bg part-0" d="M 459.83,361.85 L 515.00,379.78 Q 518.80,381.01 517.56,384.82 L 499.64,439.98 Q 498.40,443.78 494.60,442.55 L 439.44,424.62 Q 435.63,423.39 436.87,419.58 L 454.79,364.42 Q 456.03,360.62 459.83,361.85 Z" />
    <path class="key-bg part-0" d="M 551.55,399.76 L 598.48,433.85 Q 601.71,436.20 599.36,439.44 L 565.27,486.36 Q 562.92,489.59 559.68,487.24 L 512.76,453.15 Q 509.52,450.80 511.87,447.56 L 545.97,400.64 Q 548.32,397.41 551.55,399.76 Z" />
    <path class="key-bg part-0" d="M 575.76,498.25 L 622.68,464.16 Q 625.92,461.81 628.27,465.04 L 662.36,511.96 Q 664.71,515.20 661.48,517.55 L 614.55,551.64 Q 611.32,553.99 608.97,550.76 L 574.87,503.84 Q 572.52,500.60 575.76,498.25 Z" />
    <path class="key-bg part-1" d="M 893.85,464.16 L 940.78,498.25 Q 944.01,500.60 941.66,503.84 L 907.57,550.76 Q 905.22,553.99 901.98,551.64 L 855.06,517.55 Q 851.82,515.20 854.17,511.96 L 888.27,465.04 Q 890.62,461.81 893.85,464.16 Z" />
    <path class="key-bg part-1" d="M 918.06,433.85 L 964.98,399.76 Q 968.22,397.41 970.57,400.64 L 1004.66,447.56 Q 1007.01,450.80 1003.78,453.15 L 956.85,487.24 Q 953.62,489.59 951.27,486.36 L 917.17,439.44 Q 914.82,436.20 918.06,433.85 Z" />
    <path class="key-bg part-1" d="M 1001.54,379.78 L 1056.70,361.85 Q 1060.50,360.62 1061.74,364.42 L 1079.66,419.58 Q 1080.90,423.39 1077.10,424.62 L 1021.93,442.55 Q 1018.13,443.78 1016.89,439.98 L 998.97,384.82 Q 997.73,381.01 1001.54,379.78 Z" />
    <path class="key-bg part-1" d="M 1096.42,356.60 L 1154.42,356.60 Q 1158.42,356.60 1158.42,360.60 L 1158.42,418.60 Q 1158.42,422.60 1154.42,422.60 L 1096.42,422.60 Q 1092.42,422.60 1092.42,418.60 L 1092.42,360.60 Q 1092.42,356.60 1096.42,356.60 Z" />
    <path class="key-bg part-1" d="M 1357.70,242.90 L 1415.48,247.95 Q 1419.47,248.30 1419.12,252.29 L 1414.06,310.07 Q 1413.72,314.05 1409.73,313.70 L 1351.95,308.65 Q 1347.97,308.30 1348.32,304.31 L 1353.37,246.53 Q 1353.72,242.55 1357.70,242.90 Z" />
    <path class="key-bg part-0" d="M 54.97,405.43 L 112.75,400.38 Q 116.73,400.03 117.08,404.01 L 122.14,461.79 Q 122.49,465.78 118.50,466.12 L 60.72,471.18 Q 56.74,471.53 56.39,467.54 L 51.33,409.76 Q 50.99,405.78 54.97,405.43 Z" />
    <path class="key-bg part-0" d="M 260.62,351.00 L 269.62,351.00 Q 273.62,351.00 273.62,355.00 L 273.62,378.00 Q 273.62,382.00 269.62,382.00 L 260.62,382.00 Q 256.62,382.00 256.62,378.00 L 256.62,355.00 Q 256.62,351.00 260.62,351.00 Z" />
    <path class="key-bg part-0" d="M 225.62,379.00 L 248.62,379.00 Q 252.62,379.00 252.62,383.00 L 252.62,392.00 Q 252.62,396.00 248.62,396.00 L 225.62,396.00 Q 221.62,396.00 221.62,392.00 L 221.62,383.00 Q 221.62,379.00 225.62,379.00 Z" />
    <path class="key-bg part-0" d="M 281.62,379.00 L 304.62,379.00 Q 308.62,379.00 308.62,383.00 L 308.62,392.00 Q 308.62,396.00 304.62,396.00 L 281.62,396.00 Q 277.62,396.00 277.62,392.00 L 277.62,383.00 Q 277.62,379.00 281.62,379.00 Z" />
    <path class="key-bg part-0" d="M 260.62,386.00 L 269.62,386.00 Q 273.62,386.00 273.62,390.00 L 273.62,413.00 Q 273.62,417.00 269.62,417.00 L 260.62,417.00 Q 256.62,417.00 256.62,413.00 L 256.62,390.00 Q 256.62,386.00 260.62,386.00 Z" />
    <path class="key-bg part-1" d="M 1246.92,337.00 L 1255.92,337.00 Q 1259.92,337.00 1259.92,341.00 L 1259.92,364.00 Q 1259.92,368.00 1255.92,368.00 L 1246.92,368.00 Q 1242.92,368.00 1242.92,364.00 L 1242.92,341.00 Q 1242.92,337.00 1246.92,337.00 Z" />
    <path class="key-bg part-1" d="M 1211.92,330.00 L 1234.92,330.00 Q 1238.92,330.00 1238.92,334.00 L 1238.92,343.00 Q 1238.92,347.00 1234.92,347.00 L 1211.92,347.00 Q 1207.92,347.00 1207.92,343.00 L 1207.92,334.00 Q 1207.92,330.00 1211.92,330.00 Z" />
    <path class="key-bg part-1" d="M 1267.92,330.00 L 1290.92,330.00 Q 1294.92,330.00 1294.92,334.00 L 1294.92,343.00 Q 1294.92,347.00 1290.92,347.00 L 1267.92,347.00 Q 1263.92,347.00 1263.92,343.00 L 1263.92,334.00 Q 1263.92,330.00 1267.92,330.00 Z" />
    <path class="key-bg part-1" d="M 1246.92,302.00 L 1255.92,302.00 Q 1259.92,302.00 1259.92,306.00 L 1259.92,329.00 Q 1259.92,333.00 1255.92,333.00 L 1246.92,333.00 Q 1242.92,333.00 1242.92,329.00 L 1242.92,306.00 Q 1242.92,302.00 1246.92,302.00 Z" />
    <path class="key-bg part-1" d="M 1403.78,400.38 L 1461.56,405.43 Q 1465.55,405.78 1465.20,409.76 L 1460.15,467.54 Q 1459.80,471.53 1455.81,471.18 L 1398.03,466.12 Q 1394.05,465.78 1394.40,461.79 L 1399.45,404.01 Q 1399.80,400.03 1403.78,400.38 Z" />
    <path class="key-bg part-0" d="M 168.92,512.00 L 296.92,512.00 Q 300.92,512.00 300.92,516.00 L 300.92,574.00 Q 300.92,578.00 296.92,578.00 L 168.92,578.00 Q 164.92,578.00 164.92,574.00 L 164.92,516.00 Q 164.92,512.00 168.92,512.00 Z" />
    <path class="key-bg part-1" d="M 1218.92,512.00 L 1346.92,512.00 Q 1350.92,512.00 1350.92,516.00 L 1350.92,574.00 Q 1350.92,578.00 1346.92,578.00 L 1218.92,578.00 Q 1214.92,578.00 1214.92,574.00 L 1214.92,516.00 Q 1214.92,512.00 1218.92,512.00 Z" />
  </g>
  <g>
    <text class="key-index" x="127.22" y="197.36" font-size="26" transform="rotate(-5 127.22 209.00)">0</text>
    <text class="key-part part-0" x="127.22" y="224.64" font-size="18" transform="rotate(-5 127.22 209.00)">left</text>
    <text class="key-index" x="230.12" y="78.36" font-size="26">1</text>
    <text class="key-part part-0" x="230.12" y="105.64" font-size="18">left</text>
    <text class="key-index" x="300.12" y="43.36" font-size="26">2</text>
    <text class="key-part part-0" x="300.12" y="70.64" font-size="18">left</text>
    <text class="key-index" x="384.12" y="92.36" font-size="26">3</text>
    <text class="key-part part-0" x="384.12" y="119.64" font-size="18">left</text>
    <text class="key-index" x="454.12" y="109.86" font-size="26">4</text>
    <text class="key-part part-0" x="454.12" y="137.14" font-size="18">left</text>
    <text class="key-index" x="1062.42" y="109.86" font-size="26">5</text>
    <text class="key-part part-1" x="1062.42" y="137.14" font-size="18">right</text>
    <text class="key-index" x="1132.42" y="92.36" font-size="26">6</text>
    <text class="key-part part-1" x="1132.42" y="119.64" font-size="18">right</text>
    <text class="key-index" x="1216.42" y="43.36" font-size="26">7</text>
    <text class="key-part part-1" x="1216.42" y="70.64" font-size="18">right</text>
    <text class="key-index" x="1286.42" y="78.36" font-size="26">8</text>
    <text class="key-part part-1" x="1286.42" y="105.64" font-size="18">right</text>
    <text class="key-index" x="1389.32" y="197.36" font-size="26" transform="rotate(5 1389.32 209.00)">9</text>
    <text class="key-part part-1" x="1389.32" y="224.64" font-size="18" transform="rotate(5 1389.32 209.00)">right</text>
    <text class="key-index" x="57.92" y="194.56" font-size="26" transform="rotate(-5 57.92 206.20)">10</text>
    <text class="key-part part-0" x="57.92" y="221.84" font-size="18" transform="rotate(-5 57.92 206.20)">left</text>
    <text class="key-index" x="230.12" y="148.36" font-size="26">11</text>
    <text class="key-part part-0" x="230.12" y="175.64" font-size="18">left</text>
    <text class="key-index" x="300.12" y="113.36" font-size="26">12</text>
    <text class="key-part part-0" x="300.12" y="140.64" font-size="18">left</text>
    <text class="key-index" x="384.12" y="162.36" font-size="26">13</text>
    <text class="key-part part-0" x="384.12" y="189.64" font-size="18">left</text>
    <text class="key-index" x="454.12" y="179.86" font-size="26">14</text>
    <text class="key-part part-0" x="454.12" y="207.14" font-size="18">left</text>
    <text class="key-index" x="1062.42" y="179.86" font-size="26">15</text>
    <text class="key-part part-1" x="1062.42" y="207.14" font-size="18">right</text>
    <text class="key-index" x="1132.42" y="162.36" font-size="26">16</text>
    <text class="key-part part-1" x="1132.42" y="189.64" font-size="18">right</text>
    <text class="key-index" x="1216.42" y="113.36" font-size="26">17</text>
    <text class="key-part part-1" x="1216.42" y="140.64" font-size="18">right</text>
    <text class="key-index" x="1286.42" y="148.36" font-size="26">18</text>
    <text class="key-part part-1" x="1286.42" y="175.64" font-size="18">right</text>
    <text class="key-index" x="1458.62" y="194.56" font-size="26" transform="rotate(5 1458.62 206.20)">19</text>
    <text class="key-part part-1" x="1458.62" y="221.84" font-size="18" transform="rotate(5 1458.62 206.20)">right</text>
    <text class="key-index" x="64.92" y="281.36" font-size="26" transform="rotate(-5 64.92 293.00)">20</text>
    <text class="key-part part-0" x="64.92" y="308.64" font-size="18" transform="rotate(-5 64.92 293.00)">left</text>
    <text class="key-index" x="230.12" y="218.36" font-size="26">21</text>
    <text class="key-part part-0" x="230.12" y="245.64" font-size="18">left</text>
    <text class="key-index" x="300.12" y="183.36" font-size="26">22</text>
    <text class="key-part part-0" x="300.12" y="210.64" font-size="18">left</text>
    <text class="key-index" x="384.12" y="232.36" font-size="26">23</text>
    <text class="key-part part-0" x="384.12" y="259.64" font-size="18">left</text>
    <text class="key-index" x="454.12" y="249.86" font-size="26">24</text>
    <text class="key-part part-0" x="454.12" y="277.14" font-size="18">left</text>
    <text class="key-index" x="1062.42" y="249.86" font-size="26">25</text>
    <text class="key-part part-1" x="1062.42" y="277.14" font-size="18">right</text>
    <text class="key-index" x="1132.42" y="232.36" font-size="26">26</text>
    <text class="key-part part-1" x="1132.42" y="259.64" font-size="18">right</text>
    <text class="key-index" x="1216.42" y="183.36" font-size="26">27</text>
    <text class="key-part part-1" x="1216.42" y="210.64" font-size="18">right</text>
    <text class="key-index" x="1286.42" y="218.36" font-size="26">28</text>
    <text class="key-part part-1" x="1286.42" y="245.64" font-size="18">right</text>
    <text class="key-index" x="1451.62" y="281.36" font-size="26" transform="rotate(5 1451.62 293.00)">29</text>
    <text class="key-part part-1" x="1451.62" y="308.64" font-size="18" transform="rotate(5 1451.62 293.00)">right</text>
    <text class="key-index" x="132.82" y="266.66" font-size="26" transform="rotate(-5 132.82 278.30)">30</text>
    <text class="key-part part-0" x="132.82" y="293.94" font-size="18" transform="rotate(-5 132.82 278.30)">left</text>
    <text class="key-index" x="391.12" y="377.96" font-size="26">31</text>
    <text class="key-part part-0" x="391.12" y="405.24" font-size="18">left</text>
    <text class="key-index" x="477.22" y="390.56" font-size="26" transform="rotate(18 477.22 402.20)">32</text>
    <text class="key-part part-0" x="477.22" y="417.84" font-size="18" transform="rotate(18 477.22 402.20)">left</text>
    <text class="key-index" x="555.62" y="431.86" font-size="26" transform="rotate(36 555.62 443.50)">33</text>
    <text class="key-part part-0" x="555.62" y="459.14" font-size="18" transform="rotate(36 555.62 443.50)">left</text>
    <text class="key-index" x="618.62" y="496.26" font-size="26" transform="rotate(-36 618.62 507.90)">34</text>
    <text class="key-part part-0" x="618.62" y="523.54" font-size="18" transform="rotate(-36 618.62 507.90)">left</text>
    <text class="key-index" x="897.92" y="496.26" font-size="26" transform="rotate(36 897.92 507.90)">35</text>
    <text class="key-part part-1" x="897.92" y="523.54" font-size="18" transform="rotate(36 897.92 507.90)">right</text>
    <text class="key-index" x="960.92" y="431.86" font-size="26" transform="rotate(-36 960.92 443.50)">36</text>
    <text class="key-part part-1" x="960.92" y="459.14" font-size="18" transform="rotate(-36 960.92 443.50)">right</text>
    <text class="key-index" x="1039.32" y="390.56" font-size="26" transform="rotate(-18 1039.32 402.20)">37</text>
    <text class="key-part part-1" x="1039.32" y="417.84" font-size="18" transform="rotate(-18 1039.32 402.20)">right</text>
    <text class="key-index" x="1125.42" y="377.96" font-size="26">38</text>
    <text class="key-part part-1" x="1125.42" y="405.24" font-size="18">right</text>
    <text class="key-index" x="1383.72" y="266.66" font-size="26" transform="rotate(5 1383.72 278.30)">39</text>
    <text class="key-part part-1" x="1383.72" y="293.94" font-size="18" transform="rotate(5 1383.72 278.30)">right</text>
    <text class="key-index" x="86.74" y="424.14" font-size="26" transform="rotate(-5 86.74 435.78)">40</text>
    <text class="key-part part-0" x="86.74" y="451.42" font-size="18" transform="rotate(-5 86.74 435.78)">left</text>
    <text class="key-index" x="265.12" y="363.32" font-size="7">41</text>
    <text class="key-part part-0" x="265.12" y="370.68" font-size="5">left</text>
    <text class="key-index" x="237.12" y="384.32" font-size="7">42</text>
    <text class="key-part part-0" x="237.12" y="391.68" font-size="5">left</text>
    <text class="key-index" x="293.12" y="384.32" font-size="7">43</text>
    <text class="key-part part-0" x="293.12" y="391.68" font-size="5">left</text>
    <text class="key-index" x="265.12" y="398.32" font-size="7">44</text>
    <text class="key-part part-0" x="265.12" y="405.68" font-size="5">left</text>
    <text class="key-index" x="1251.42" y="349.32" font-size="7">45</text>
    <text class="key-part part-1" x="1251.42" y="356.68" font-size="5">right</text>
    <text class="key-index" x="1223.42" y="335.32" font-size="7">46</text>
    <text class="key-part part-1" x="1223.42" y="342.68" font-size="5">right</text>
    <text class="key-index" x="1279.42" y="335.32" font-size="7">47</text>
    <text class="key-part part-1" x="1279.42" y="342.68" font-size="5">right</text>
    <text class="key-index" x="1251.42" y="314.32" font-size="7">48</text>
    <text class="key-part part-1" x="1251.42" y="321.68" font-size="5">right</text>
    <text class="key-index" x="1429.80" y="424.14" font-size="26" transform="rotate(5 1429.80 435.78)">49</text>
    <text class="key-part part-1" x="1429.80" y="451.42" font-size="18" transform="rotate(5 1429.80 435.78)">right</text>
    <text class="key-index" x="232.92" y="533.36" font-size="26">50</text>
    <text class="key-part part-0" x="232.92" y="560.64" font-size="18">left</text>
    <text class="key-index" x="1282.92" y="533.36" font-size="26">51</text>
    <text class="key-part part-1" x="1282.92" y="560.64" font-size="18">right</text>
  </g>
</svg>
